ply
format ascii 1.0
comment Created by Blender 2.74 (sub 0) - www.blender.org, source file: ''
element vertex 270
property float x
property float y
property float z
property float nx
property float ny
property float nz
element face 92
property list uchar uint vertex_indices
end_header
3.202931 -0.110930 -3.202931 -0.000000 -1.000000 0.000000
3.202931 -0.110930 3.202931 -0.000000 -1.000000 0.000000
-3.202931 -0.110930 3.202930 -0.000000 -1.000000 0.000000
-3.202929 -0.110930 -3.202932 -0.000000 -1.000000 0.000000
3.202932 0.071227 -3.202929 0.000000 1.000000 -0.000000
-3.202930 0.071227 -3.202931 0.000000 1.000000 -0.000000
-3.202932 0.071227 3.202929 0.000000 1.000000 -0.000000
3.202929 0.071227 3.202932 0.000000 1.000000 -0.000000
3.202931 -0.110930 -3.202931 1.000000 -0.000005 0.000000
3.202932 0.071227 -3.202929 1.000000 -0.000005 0.000000
3.202929 0.071227 3.202932 1.000000 -0.000005 0.000000
3.202931 -0.110930 -3.202931 1.000000 0.000010 -0.000000
3.202929 0.071227 3.202932 1.000000 0.000010 -0.000000
3.202931 -0.110930 3.202931 1.000000 0.000010 -0.000000
3.202931 -0.110930 3.202931 -0.000000 -0.000005 1.000000
3.202929 0.071227 3.202932 -0.000000 -0.000005 1.000000
-3.202932 0.071227 3.202929 -0.000000 -0.000005 1.000000
3.202931 -0.110930 3.202931 -0.000000 0.000005 1.000000
-3.202932 0.071227 3.202929 -0.000000 0.000005 1.000000
-3.202931 -0.110930 3.202930 -0.000000 0.000005 1.000000
-3.202931 -0.110930 3.202930 -1.000000 -0.000005 -0.000000
-3.202932 0.071227 3.202929 -1.000000 -0.000005 -0.000000
-3.202930 0.071227 -3.202931 -1.000000 -0.000005 -0.000000
-3.202929 -0.110930 -3.202932 -1.000000 -0.000005 -0.000000
3.202932 0.071227 -3.202929 0.000000 0.000010 -1.000000
3.202931 -0.110930 -3.202931 0.000000 0.000010 -1.000000
-3.202929 -0.110930 -3.202932 0.000000 0.000010 -1.000000
3.202932 0.071227 -3.202929 0.000000 0.000005 -1.000000
-3.202929 -0.110930 -3.202932 0.000000 0.000005 -1.000000
-3.202930 0.071227 -3.202931 0.000000 0.000005 -1.000000
0.432994 0.425545 0.728527 0.102382 -0.943523 0.315089
0.858316 0.574891 1.037538 0.102382 -0.943523 0.315089
0.270538 0.574890 1.228522 0.102382 -0.943523 0.315089
1.156601 0.978325 1.254252 0.700224 -0.661700 0.268031
0.858316 0.574891 1.037538 0.700224 -0.661700 0.268031
1.283641 0.899809 0.728527 0.700224 -0.661700 0.268031
0.432994 0.425545 0.728527 -0.268034 -0.943523 0.194736
0.270538 0.574890 1.228522 -0.268034 -0.943523 0.194736
-0.092736 0.574893 0.728527 -0.268034 -0.943523 0.194736
0.432994 0.425545 0.728527 -0.268034 -0.943523 -0.194735
-0.092736 0.574893 0.728527 -0.268034 -0.943523 -0.194735
0.270538 0.574890 0.228531 -0.268034 -0.943523 -0.194735
0.432994 0.425545 0.728527 0.102382 -0.943524 -0.315089
0.270538 0.574890 0.228531 0.102382 -0.943524 -0.315089
0.858316 0.574891 0.419515 0.102382 -0.943524 -0.315089
1.156601 0.978325 1.254252 0.904990 -0.330384 0.268030
1.283641 0.899809 0.728527 0.904990 -0.330384 0.268030
1.384051 1.425545 1.037539 0.904990 -0.330384 0.268030
0.156606 0.978325 1.579176 0.024747 -0.330387 0.943521
0.695862 0.899807 1.537538 0.024747 -0.330387 0.943521
0.432994 1.425545 1.728527 0.024747 -0.330387 0.943521
-0.461433 0.978329 0.728527 -0.889697 -0.330384 0.315096
-0.255196 0.899809 1.228523 -0.889697 -0.330384 0.315096
-0.518064 1.425545 1.037539 -0.889697 -0.330384 0.315096
0.156606 0.978325 -0.122123 -0.574602 -0.330388 -0.748783
-0.255196 0.899809 0.228530 -0.574602 -0.330388 -0.748783
-0.154792 1.425545 -0.080490 -0.574602 -0.330388 -0.748783
1.156601 0.978325 0.202801 0.534575 -0.330386 -0.777865
0.695862 0.899807 -0.080485 0.534575 -0.330386 -0.777865
1.020779 1.425545 -0.080490 0.534575 -0.330386 -0.777865
1.156601 0.978325 1.254252 0.802609 -0.125626 0.583126
1.384051 1.425545 1.037539 0.802609 -0.125626 0.583126
1.020779 1.425545 1.537543 0.802609 -0.125626 0.583126
0.156606 0.978325 1.579176 -0.306570 -0.125628 0.943521
0.432994 1.425545 1.728527 -0.306570 -0.125628 0.943521
-0.154792 1.425545 1.537543 -0.306570 -0.125628 0.943521
-0.461433 0.978329 0.728527 -0.992077 -0.125627 0.000000
-0.518064 1.425545 1.037539 -0.992077 -0.125627 0.000000
-0.518064 1.425545 0.419514 -0.992077 -0.125627 0.000000
0.156606 0.978325 -0.122123 -0.306568 -0.125628 -0.943522
-0.154792 1.425545 -0.080490 -0.306568 -0.125628 -0.943522
0.432994 1.425545 -0.271473 -0.306568 -0.125628 -0.943522
1.156601 0.978325 0.202801 0.802609 -0.125626 -0.583126
1.020779 1.425545 -0.080490 0.802609 -0.125626 -0.583126
1.384051 1.425545 0.419514 0.802609 -0.125626 -0.583126
0.709382 1.872765 1.579176 0.408947 0.661699 0.628424
1.121183 1.951281 1.228523 0.408947 0.661699 0.628424
0.595449 2.276199 1.228522 0.408947 0.661699 0.628424
-0.290614 1.872764 1.254252 -0.471299 0.661698 0.583123
0.170125 1.951282 1.537538 -0.471299 0.661698 0.583123
0.007671 2.276199 1.037538 -0.471299 0.661698 0.583123
-0.290614 1.872764 0.202801 -0.700224 0.661699 -0.268031
-0.417654 1.951281 0.728527 -0.700224 0.661699 -0.268031
0.007671 2.276199 0.419515 -0.700224 0.661699 -0.268031
0.709382 1.872765 -0.122123 0.038529 0.661699 -0.748779
0.170125 1.951282 -0.080485 0.038529 0.661699 -0.748779
0.595449 2.276199 0.228531 0.038529 0.661699 -0.748779
1.327420 1.872760 0.728527 0.724042 0.661696 -0.194736
1.121183 1.951281 0.228530 0.724042 0.661696 -0.194736
0.958723 2.276196 0.728527 0.724042 0.661696 -0.194736
0.958723 2.276196 0.728527 0.268036 0.943523 -0.194736
0.595449 2.276199 0.228531 0.268036 0.943523 -0.194736
0.432994 2.425545 0.728527 0.268036 0.943523 -0.194736
0.958723 2.276196 0.728527 0.491120 0.794658 -0.356820
1.121183 1.951281 0.228530 0.491120 0.794658 -0.356820
0.595449 2.276199 0.228531 0.491120 0.794658 -0.356820
1.121183 1.951281 0.228530 0.408947 0.661699 -0.628424
0.709382 1.872765 -0.122123 0.408947 0.661699 -0.628424
0.595449 2.276199 0.228531 0.408947 0.661699 -0.628424
0.595449 2.276199 0.228531 -0.102381 0.943524 -0.315090
0.007671 2.276199 0.419515 -0.102381 0.943524 -0.315090
0.432994 2.425545 0.728527 -0.102381 0.943524 -0.315090
0.595449 2.276199 0.228531 -0.187594 0.794657 -0.577346
0.170125 1.951282 -0.080485 -0.187594 0.794657 -0.577346
0.007671 2.276199 0.419515 -0.187594 0.794657 -0.577346
0.170125 1.951282 -0.080485 -0.471299 0.661698 -0.583123
-0.290614 1.872764 0.202801 -0.471299 0.661698 -0.583123
0.007671 2.276199 0.419515 -0.471299 0.661698 -0.583123
0.007671 2.276199 0.419515 -0.331304 0.943524 0.000000
0.007671 2.276199 1.037538 -0.331304 0.943524 0.000000
0.432994 2.425545 0.728527 -0.331304 0.943524 0.000000
0.007671 2.276199 0.419515 -0.607060 0.794656 0.000000
-0.417654 1.951281 0.728527 -0.607060 0.794656 0.000000
0.007671 2.276199 1.037538 -0.607060 0.794656 0.000000
-0.417654 1.951281 0.728527 -0.700224 0.661699 0.268032
-0.290614 1.872764 1.254252 -0.700224 0.661699 0.268032
0.007671 2.276199 1.037538 -0.700224 0.661699 0.268032
0.007671 2.276199 1.037538 -0.102381 0.943523 0.315090
0.595449 2.276199 1.228522 -0.102381 0.943523 0.315090
0.432994 2.425545 0.728527 -0.102381 0.943523 0.315090
0.007671 2.276199 1.037538 -0.187594 0.794657 0.577346
0.170125 1.951282 1.537538 -0.187594 0.794657 0.577346
0.595449 2.276199 1.228522 -0.187594 0.794657 0.577346
0.170125 1.951282 1.537538 0.038529 0.661699 0.748779
0.709382 1.872765 1.579176 0.038529 0.661699 0.748779
0.595449 2.276199 1.228522 0.038529 0.661699 0.748779
0.595449 2.276199 1.228522 0.268036 0.943522 0.194737
0.958723 2.276196 0.728527 0.268036 0.943522 0.194737
0.432994 2.425545 0.728527 0.268036 0.943522 0.194737
0.595449 2.276199 1.228522 0.491120 0.794658 0.356821
1.121183 1.951281 1.228523 0.491120 0.794658 0.356821
0.958723 2.276196 0.728527 0.491120 0.794658 0.356821
1.121183 1.951281 1.228523 0.724042 0.661696 0.194736
1.327420 1.872760 0.728527 0.724042 0.661696 0.194736
0.958723 2.276196 0.728527 0.724042 0.661696 0.194736
1.384051 1.425545 0.419514 0.889697 0.330384 -0.315095
1.121183 1.951281 0.228530 0.889697 0.330384 -0.315095
1.327420 1.872760 0.728527 0.889697 0.330384 -0.315095
1.384051 1.425545 0.419514 0.794656 0.187595 -0.577348
1.020779 1.425545 -0.080490 0.794656 0.187595 -0.577348
1.121183 1.951281 0.228530 0.794656 0.187595 -0.577348
1.020779 1.425545 -0.080490 0.574603 0.330387 -0.748783
0.709382 1.872765 -0.122123 0.574603 0.330387 -0.748783
1.121183 1.951281 0.228530 0.574603 0.330387 -0.748783
0.432994 1.425545 -0.271473 -0.024748 0.330385 -0.943522
0.170125 1.951282 -0.080485 -0.024748 0.330385 -0.943522
0.709382 1.872765 -0.122123 -0.024748 0.330385 -0.943522
0.432994 1.425545 -0.271473 -0.303530 0.187597 -0.934172
-0.154792 1.425545 -0.080490 -0.303530 0.187597 -0.934172
0.170125 1.951282 -0.080485 -0.303530 0.187597 -0.934172
-0.154792 1.425545 -0.080490 -0.534575 0.330386 -0.777865
-0.290614 1.872764 0.202801 -0.534575 0.330386 -0.777865
0.170125 1.951282 -0.080485 -0.534575 0.330386 -0.777865
-0.518064 1.425545 0.419514 -0.904989 0.330384 -0.268031
-0.417654 1.951281 0.728527 -0.904989 0.330384 -0.268031
-0.290614 1.872764 0.202801 -0.904989 0.330384 -0.268031
-0.518064 1.425545 0.419514 -0.982246 0.187599 0.000000
-0.518064 1.425545 1.037539 -0.982246 0.187599 0.000000
-0.417654 1.951281 0.728527 -0.982246 0.187599 0.000000
-0.518064 1.425545 1.037539 -0.904989 0.330384 0.268031
-0.290614 1.872764 1.254252 -0.904989 0.330384 0.268031
-0.417654 1.951281 0.728527 -0.904989 0.330384 0.268031
-0.154792 1.425545 1.537543 -0.534575 0.330387 0.777865
0.170125 1.951282 1.537538 -0.534575 0.330387 0.777865
-0.290614 1.872764 1.254252 -0.534575 0.330387 0.777865
-0.154792 1.425545 1.537543 -0.303532 0.187598 0.934171
0.432994 1.425545 1.728527 -0.303532 0.187598 0.934171
0.170125 1.951282 1.537538 -0.303532 0.187598 0.934171
0.432994 1.425545 1.728527 -0.024747 0.330387 0.943521
0.709382 1.872765 1.579176 -0.024747 0.330387 0.943521
0.170125 1.951282 1.537538 -0.024747 0.330387 0.943521
1.020779 1.425545 1.537543 0.574603 0.330387 0.748783
1.121183 1.951281 1.228523 0.574603 0.330387 0.748783
0.709382 1.872765 1.579176 0.574603 0.330387 0.748783
1.020779 1.425545 1.537543 0.794656 0.187595 0.577348
1.384051 1.425545 1.037539 0.794656 0.187595 0.577348
1.121183 1.951281 1.228523 0.794656 0.187595 0.577348
1.384051 1.425545 1.037539 0.889697 0.330384 0.315095
1.327420 1.872760 0.728527 0.889697 0.330384 0.315095
1.121183 1.951281 1.228523 0.889697 0.330384 0.315095
1.020779 1.425545 -0.080490 0.306569 0.125627 -0.943522
0.432994 1.425545 -0.271473 0.306569 0.125627 -0.943522
0.709382 1.872765 -0.122123 0.306569 0.125627 -0.943522
1.020779 1.425545 -0.080490 0.303531 -0.187597 -0.934171
0.695862 0.899807 -0.080485 0.303531 -0.187597 -0.934171
0.432994 1.425545 -0.271473 0.303531 -0.187597 -0.934171
0.695862 0.899807 -0.080485 0.024747 -0.330385 -0.943522
0.156606 0.978325 -0.122123 0.024747 -0.330385 -0.943522
0.432994 1.425545 -0.271473 0.024747 -0.330385 -0.943522
-0.154792 1.425545 -0.080490 -0.802609 0.125626 -0.583126
-0.518064 1.425545 0.419514 -0.802609 0.125626 -0.583126
-0.290614 1.872764 0.202801 -0.802609 0.125626 -0.583126
-0.154792 1.425545 -0.080490 -0.794656 -0.187595 -0.577348
-0.255196 0.899809 0.228530 -0.794656 -0.187595 -0.577348
-0.518064 1.425545 0.419514 -0.794656 -0.187595 -0.577348
-0.255196 0.899809 0.228530 -0.889697 -0.330384 -0.315095
-0.461433 0.978329 0.728527 -0.889697 -0.330384 -0.315095
-0.518064 1.425545 0.419514 -0.889697 -0.330384 -0.315095
-0.518064 1.425545 1.037539 -0.802609 0.125626 0.583126
-0.154792 1.425545 1.537543 -0.802609 0.125626 0.583126
-0.290614 1.872764 1.254252 -0.802609 0.125626 0.583126
-0.518064 1.425545 1.037539 -0.794656 -0.187595 0.577348
-0.255196 0.899809 1.228523 -0.794656 -0.187595 0.577348
-0.154792 1.425545 1.537543 -0.794656 -0.187595 0.577348
-0.255196 0.899809 1.228523 -0.574602 -0.330387 0.748783
0.156606 0.978325 1.579176 -0.574602 -0.330387 0.748783
-0.154792 1.425545 1.537543 -0.574602 -0.330387 0.748783
0.432994 1.425545 1.728527 0.306570 0.125628 0.943521
1.020779 1.425545 1.537543 0.306570 0.125628 0.943521
0.709382 1.872765 1.579176 0.306570 0.125628 0.943521
0.432994 1.425545 1.728527 0.303532 -0.187598 0.934171
0.695862 0.899807 1.537538 0.303532 -0.187598 0.934171
1.020779 1.425545 1.537543 0.303532 -0.187598 0.934171
0.695862 0.899807 1.537538 0.534575 -0.330386 0.777865
1.156601 0.978325 1.254252 0.534575 -0.330386 0.777865
1.020779 1.425545 1.537543 0.534575 -0.330386 0.777865
1.384051 1.425545 1.037539 0.992078 0.125627 -0.000000
1.384051 1.425545 0.419514 0.992078 0.125627 -0.000000
1.327420 1.872760 0.728527 0.992078 0.125627 -0.000000
1.384051 1.425545 1.037539 0.982246 -0.187599 0.000000
1.283641 0.899809 0.728527 0.982246 -0.187599 0.000000
1.384051 1.425545 0.419514 0.982246 -0.187599 0.000000
1.283641 0.899809 0.728527 0.904990 -0.330384 -0.268030
1.156601 0.978325 0.202801 0.904990 -0.330384 -0.268030
1.384051 1.425545 0.419514 0.904990 -0.330384 -0.268030
0.858316 0.574891 0.419515 0.471299 -0.661699 -0.583122
0.695862 0.899807 -0.080485 0.471299 -0.661699 -0.583122
1.156601 0.978325 0.202801 0.471299 -0.661699 -0.583122
0.858316 0.574891 0.419515 0.187595 -0.794658 -0.577345
0.270538 0.574890 0.228531 0.187595 -0.794658 -0.577345
0.695862 0.899807 -0.080485 0.187595 -0.794658 -0.577345
0.270538 0.574890 0.228531 -0.038530 -0.661698 -0.748779
0.156606 0.978325 -0.122123 -0.038530 -0.661698 -0.748779
0.695862 0.899807 -0.080485 -0.038530 -0.661698 -0.748779
0.270538 0.574890 0.228531 -0.408947 -0.661698 -0.628425
-0.255196 0.899809 0.228530 -0.408947 -0.661698 -0.628425
0.156606 0.978325 -0.122123 -0.408947 -0.661698 -0.628425
0.270538 0.574890 0.228531 -0.491121 -0.794657 -0.356821
-0.092736 0.574893 0.728527 -0.491121 -0.794657 -0.356821
-0.255196 0.899809 0.228530 -0.491121 -0.794657 -0.356821
-0.092736 0.574893 0.728527 -0.724042 -0.661696 -0.194737
-0.461433 0.978329 0.728527 -0.724042 -0.661696 -0.194737
-0.255196 0.899809 0.228530 -0.724042 -0.661696 -0.194737
-0.092736 0.574893 0.728527 -0.724041 -0.661696 0.194737
-0.255196 0.899809 1.228523 -0.724041 -0.661696 0.194737
-0.461433 0.978329 0.728527 -0.724041 -0.661696 0.194737
-0.092736 0.574893 0.728527 -0.491120 -0.794657 0.356821
0.270538 0.574890 1.228522 -0.491120 -0.794657 0.356821
-0.255196 0.899809 1.228523 -0.491120 -0.794657 0.356821
0.270538 0.574890 1.228522 -0.408947 -0.661698 0.628425
0.156606 0.978325 1.579176 -0.408947 -0.661698 0.628425
-0.255196 0.899809 1.228523 -0.408947 -0.661698 0.628425
1.283641 0.899809 0.728527 0.700224 -0.661700 -0.268030
0.858316 0.574891 0.419515 0.700224 -0.661700 -0.268030
1.156601 0.978325 0.202801 0.700224 -0.661700 -0.268030
1.283641 0.899809 0.728527 0.607060 -0.794656 0.000000
0.858316 0.574891 1.037538 0.607060 -0.794656 0.000000
0.858316 0.574891 0.419515 0.607060 -0.794656 0.000000
0.858316 0.574891 1.037538 0.331305 -0.943524 0.000000
0.432994 0.425545 0.728527 0.331305 -0.943524 0.000000
0.858316 0.574891 0.419515 0.331305 -0.943524 0.000000
0.270538 0.574890 1.228522 -0.038530 -0.661698 0.748779
0.695862 0.899807 1.537538 -0.038530 -0.661698 0.748779
0.156606 0.978325 1.579176 -0.038530 -0.661698 0.748779
0.270538 0.574890 1.228522 0.187595 -0.794658 0.577345
0.858316 0.574891 1.037538 0.187595 -0.794658 0.577345
0.695862 0.899807 1.537538 0.187595 -0.794658 0.577345
0.858316 0.574891 1.037538 0.471299 -0.661699 0.583122
1.156601 0.978325 1.254252 0.471299 -0.661699 0.583122
0.695862 0.899807 1.537538 0.471299 -0.661699 0.583122
3 0 1 2
3 0 2 3
3 4 5 6
3 4 6 7
3 8 9 10
3 11 12 13
3 14 15 16
3 17 18 19
3 20 21 22
3 20 22 23
3 24 25 26
3 27 28 29
3 30 31 32
3 33 34 35
3 36 37 38
3 39 40 41
3 42 43 44
3 45 46 47
3 48 49 50
3 51 52 53
3 54 55 56
3 57 58 59
3 60 61 62
3 63 64 65
3 66 67 68
3 69 70 71
3 72 73 74
3 75 76 77
3 78 79 80
3 81 82 83
3 84 85 86
3 87 88 89
3 90 91 92
3 93 94 95
3 96 97 98
3 99 100 101
3 102 103 104
3 105 106 107
3 108 109 110
3 111 112 113
3 114 115 116
3 117 118 119
3 120 121 122
3 123 124 125
3 126 127 128
3 129 130 131
3 132 133 134
3 135 136 137
3 138 139 140
3 141 142 143
3 144 145 146
3 147 148 149
3 150 151 152
3 153 154 155
3 156 157 158
3 159 160 161
3 162 163 164
3 165 166 167
3 168 169 170
3 171 172 173
3 174 175 176
3 177 178 179
3 180 181 182
3 183 184 185
3 186 187 188
3 189 190 191
3 192 193 194
3 195 196 197
3 198 199 200
3 201 202 203
3 204 205 206
3 207 208 209
3 210 211 212
3 213 214 215
3 216 217 218
3 219 220 221
3 222 223 224
3 225 226 227
3 228 229 230
3 231 232 233
3 234 235 236
3 237 238 239
3 240 241 242
3 243 244 245
3 246 247 248
3 249 250 251
3 252 253 254
3 255 256 257
3 258 259 260
3 261 262 263
3 264 265 266
3 267 268 269
