ply
format ascii 1.0
comment Created by Blender 2.74 (sub 0) - www.blender.org, source file: ''
element vertex 270
property float x
property float y
property float z
property float nx
property float ny
property float nz
property float s
property float t
property uchar red
property uchar green
property uchar blue
element face 92
property list uchar uint vertex_indices
end_header
3.202931 -0.110930 -3.202931 0.577319 -0.577319 -0.577349 0.631106 0.497680 63 82 139
3.202931 -0.110930 3.202931 0.577349 -0.577349 0.577319 0.002942 0.497680 114 38 38
-3.202931 -0.110930 3.202930 -0.577319 -0.577349 0.577349 0.002942 0.002320 97 72 72
-3.202929 -0.110930 -3.202932 -0.577319 -0.577349 -0.577349 0.631106 0.002320 47 53 72
3.202932 0.071227 -3.202929 0.577349 0.577349 -0.577319 0.631106 0.502320 47 66 123
-3.202930 0.071227 -3.202931 -0.577349 0.577349 -0.577319 0.631106 0.997680 63 94 190
-3.202932 0.071227 3.202929 -0.577349 0.577349 0.577319 0.002942 0.997680 165 38 38
3.202929 0.071227 3.202932 0.577319 0.577349 0.577349 0.002942 0.502320 148 72 72
3.202931 -0.110930 -3.202931 0.577319 -0.577319 -0.577349 0.726061 0.497880 72 91 148
3.202932 0.071227 -3.202929 0.577349 0.577349 -0.577319 0.708206 0.497480 63 82 139
3.202929 0.071227 3.202932 0.577319 0.577349 0.577349 0.726061 0.002320 38 44 63
3.202931 -0.110930 -3.202931 0.577319 -0.577319 -0.577349 0.702322 0.002320 47 53 72
3.202929 0.071227 3.202932 0.577319 0.577349 0.577349 0.702322 0.497880 63 82 139
3.202931 -0.110930 3.202931 0.577349 -0.577349 0.577319 0.684468 0.497480 72 91 148
3.202931 -0.110930 3.202931 0.577349 -0.577349 0.577319 0.654845 0.497880 63 82 139
3.202929 0.071227 3.202932 0.577319 0.577349 0.577349 0.636990 0.497480 61 80 137
-3.202932 0.071227 3.202929 -0.577349 0.577349 0.577319 0.654845 0.002320 47 53 72
3.202931 -0.110930 3.202931 0.577349 -0.577349 0.577319 0.678584 0.002320 38 44 63
-3.202932 0.071227 3.202929 -0.577349 0.577349 0.577319 0.678584 0.497880 72 91 148
-3.202931 -0.110930 3.202930 -0.577319 -0.577349 0.577349 0.660729 0.497480 71 90 147
-3.202931 -0.110930 3.202930 -0.577319 -0.577349 0.577349 0.797298 0.497680 85 47 123
-3.202932 0.071227 3.202929 -0.577349 0.577349 0.577319 0.779437 0.497680 82 44 120
-3.202930 0.071227 -3.202931 -0.577349 0.577349 -0.577319 0.779437 0.002320 78 66 91
-3.202929 -0.110930 -3.202932 -0.577319 -0.577349 -0.577349 0.797298 0.002320 75 63 88
3.202932 0.071227 -3.202929 0.577349 0.577349 -0.577319 0.755690 0.002320 78 66 91
3.202931 -0.110930 -3.202931 0.577319 -0.577319 -0.577349 0.773553 0.002320 82 70 95
-3.202929 -0.110930 -3.202932 -0.577319 -0.577349 -0.577349 0.773553 0.497680 78 40 116
3.202932 0.071227 -3.202929 0.577349 0.577349 -0.577319 0.731948 0.002320 38 44 63
-3.202929 -0.110930 -3.202932 -0.577319 -0.577349 -0.577349 0.749807 0.497680 94 94 158
-3.202930 0.071227 -3.202931 -0.577349 0.577349 -0.577319 0.731944 0.497680 72 91 148
0.432994 0.425545 0.728527 0.000000 -1.000000 0.000000 0.907147 0.543174 165 85 145
0.858316 0.574891 1.037538 0.425306 -0.850642 0.309000 0.858117 0.530611 103 64 143
0.270538 0.574890 1.228522 -0.162450 -0.850642 0.499985 0.907147 0.502520 157 81 138
1.156601 0.978325 1.254252 0.723594 -0.447188 0.525712 0.841820 0.747922 94 44 145
0.858316 0.574891 1.037538 0.425306 -0.850642 0.309000 0.841820 0.783500 109 57 162
1.283641 0.899809 0.728527 0.850642 -0.525712 0.000000 0.799923 0.772356 109 57 161
0.432994 0.425545 0.728527 0.000000 -1.000000 0.000000 0.901951 0.212045 118 71 106
0.270538 0.574890 1.228522 -0.162450 -0.850642 0.499985 0.901951 0.252699 103 52 90
-0.092736 0.574893 0.728527 -0.525712 -0.850642 0.000000 0.852921 0.224608 71 47 95
0.432994 0.425545 0.728527 0.000000 -1.000000 0.000000 0.803182 0.026216 71 57 85
-0.092736 0.574893 0.728527 -0.525712 -0.850642 0.000000 0.844890 0.002320 96 84 109
0.270538 0.574890 0.228531 -0.162450 -0.850642 -0.499985 0.844890 0.050112 109 94 124
0.432994 0.425545 0.728527 0.000000 -1.000000 0.000000 0.901950 0.453071 140 69 122
0.270538 0.574890 0.228531 -0.162450 -0.850642 -0.499985 0.852920 0.440508 79 44 114
0.858316 0.574891 0.419515 0.425306 -0.850642 -0.309000 0.901950 0.412417 125 58 108
1.156601 0.978325 1.254252 0.723594 -0.447188 0.525712 0.846586 0.702189 86 38 135
1.283641 0.899809 0.728527 0.850642 -0.525712 0.000000 0.846586 0.743282 103 53 154
1.384051 1.425545 1.037539 0.951048 0.000000 0.309000 0.799923 0.713706 93 44 142
0.156606 0.978325 1.579176 -0.276376 -0.447218 0.850642 0.791500 0.651108 89 44 135
0.695862 0.899807 1.537538 0.262856 -0.525712 0.808985 0.791500 0.693248 0 0 0
0.432994 1.425545 1.728527 0.000000 0.000000 1.000000 0.744197 0.667275 72 95 165
-0.461433 0.978329 0.728527 -0.894406 -0.447188 0.000000 0.953589 0.114320 76 39 66
-0.255196 0.899809 1.228523 -0.688162 -0.525712 0.499985 0.953589 0.153438 107 66 96
-0.518064 1.425545 1.037539 -0.951048 0.000000 0.309000 0.905687 0.132691 110 72 101
0.156606 0.978325 -0.122123 -0.276376 -0.447188 -0.850642 0.950859 0.695376 189 120 172
-0.255196 0.899809 0.228530 -0.688162 -0.525712 -0.499985 0.909750 0.695376 156 60 132
-0.154792 1.425545 -0.080490 -0.587756 0.000000 -0.809015 0.929077 0.656895 206 114 183
1.156601 0.978325 0.202801 0.723594 -0.447188 -0.525712 0.953304 0.264477 101 49 88
0.695862 0.899807 -0.080485 0.262856 -0.525712 -0.808985 0.953304 0.300620 97 41 83
1.020779 1.425545 -0.080490 0.587756 0.000000 -0.809015 0.907835 0.269021 99 47 86
1.156601 0.978325 1.254252 0.723594 -0.447188 0.525712 0.951865 0.317030 252 251 251
1.384051 1.425545 1.037539 0.951048 0.000000 0.309000 0.951865 0.355588 103 42 88
1.020779 1.425545 1.537543 0.587786 0.000000 0.809015 0.907833 0.338577 105 46 90
0.156606 0.978325 1.579176 -0.276376 -0.447218 0.850642 0.856683 0.599824 115 72 158
0.432994 1.425545 1.728527 0.000000 0.000000 1.000000 0.809382 0.583656 171 148 194
-0.154792 1.425545 1.537543 -0.587756 0.000000 0.809015 0.856683 0.557683 107 66 148
-0.461433 0.978329 0.728527 -0.894406 -0.447188 0.000000 0.694506 0.628359 66 88 155
-0.518064 1.425545 1.037539 -0.951048 0.000000 0.309000 0.738314 0.604463 50 71 137
-0.518064 1.425545 0.419514 -0.951048 0.000000 -0.309000 0.738314 0.652255 60 82 151
0.156606 0.978325 -0.122123 -0.276376 -0.447188 -0.850642 0.738314 0.697549 60 84 156
-0.154792 1.425545 -0.080490 -0.587756 0.000000 -0.809015 0.689283 0.680790 90 110 171
0.432994 1.425545 -0.271473 0.000000 0.000000 -0.999969 0.738314 0.656895 118 141 210
1.156601 0.978325 0.202801 0.723594 -0.447188 -0.525712 0.907698 0.479413 153 79 134
1.020779 1.425545 -0.080490 0.587756 0.000000 -0.809015 0.951607 0.457711 251 251 251
1.384051 1.425545 0.419514 0.951048 0.000000 -0.309000 0.951606 0.496376 138 62 119
0.709382 1.872765 1.579176 0.276376 0.447218 0.850642 0.959187 0.296322 0 0 0
1.121183 1.951281 1.228523 0.688162 0.525712 0.499985 0.993573 0.264477 90 38 77
0.595449 2.276199 1.228522 0.162450 0.850642 0.499985 0.993573 0.305132 108 52 94
-0.290614 1.872764 1.254252 -0.723594 0.447188 0.525712 0.959473 0.152985 113 72 102
0.170125 1.951282 1.537538 -0.262856 0.525712 0.808985 0.979697 0.114320 84 47 74
0.007671 2.276199 1.037538 -0.425306 0.850642 0.309000 0.995628 0.152985 98 57 87
-0.290614 1.872764 0.202801 -0.723594 0.447188 -0.525712 0.803182 0.486008 84 47 122
-0.417654 1.951281 0.728527 -0.850642 0.525712 0.000000 0.845932 0.462510 80 44 116
0.007671 2.276199 0.419515 -0.425306 0.850642 -0.309000 0.845932 0.497379 85 47 123
0.709382 1.872765 -0.122123 0.276376 0.447218 -0.850642 0.948929 0.642944 161 70 138
0.170125 1.951282 -0.080485 -0.262856 0.525712 -0.808985 0.970710 0.604463 140 53 118
0.595449 2.276199 0.228531 0.162450 0.850642 -0.499985 0.990037 0.642944 148 57 125
1.327420 1.872760 0.728527 0.894406 0.447188 0.000000 0.905330 0.784612 143 38 117
1.121183 1.951281 0.228530 0.688162 0.525712 -0.499985 0.912865 0.745947 169 68 144
0.958723 2.276196 0.728527 0.525712 0.850642 0.000000 0.944596 0.784612 144 39 118
0.958723 2.276196 0.728527 0.525712 0.850642 0.000000 0.852921 0.285430 94 67 121
0.595449 2.276199 0.228531 0.162450 0.850642 -0.499985 0.901951 0.257339 100 49 87
0.432994 2.425545 0.728527 0.000000 1.000000 0.000000 0.901951 0.297993 98 43 84
0.958723 2.276196 0.728527 0.525712 0.850642 0.000000 0.799923 0.669458 93 47 140
1.121183 1.951281 0.228530 0.688162 0.525712 -0.499985 0.848953 0.656895 141 95 187
0.595449 2.276199 0.228531 0.162450 0.850642 -0.499985 0.848953 0.697550 86 38 134
1.121183 1.951281 0.228530 0.688162 0.525712 -0.499985 0.991172 0.313763 111 54 97
0.709382 1.872765 -0.122123 0.276376 0.447218 -0.850642 0.991172 0.355588 112 51 97
0.595449 2.276199 0.228531 0.162450 0.850642 -0.499985 0.957748 0.344716 130 70 115
0.595449 2.276199 0.228531 0.162450 0.850642 -0.499985 0.901950 0.357684 100 39 85
0.007671 2.276199 0.419515 -0.425306 0.850642 -0.309000 0.852920 0.329593 92 63 122
0.432994 2.425545 0.728527 0.000000 1.000000 0.000000 0.901950 0.317030 105 48 91
0.595449 2.276199 0.228531 0.162450 0.850642 -0.499985 0.850773 0.126883 57 38 76
0.170125 1.951282 -0.080485 -0.262856 0.525712 -0.808985 0.899804 0.114320 75 38 65
0.007671 2.276199 0.419515 -0.425306 0.850642 -0.309000 0.899804 0.154974 107 66 96
0.170125 1.951282 -0.080485 -0.262856 0.525712 -0.808985 0.976834 0.557683 133 51 112
-0.290614 1.872764 0.202801 -0.723594 0.447188 -0.525712 0.997058 0.596347 133 47 111
0.007671 2.276199 0.419515 -0.425306 0.850642 -0.309000 0.960903 0.596347 127 41 105
0.007671 2.276199 0.419515 -0.425306 0.850642 -0.309000 0.862567 0.585774 101 59 144
0.007671 2.276199 1.037538 -0.425306 0.850642 0.309000 0.911597 0.557683 241 241 241
0.432994 2.425545 0.728527 0.000000 1.000000 0.000000 0.911597 0.598337 139 53 117
0.007671 2.276199 0.419515 -0.425306 0.850642 -0.309000 0.852920 0.374887 113 82 145
-0.417654 1.951281 0.728527 -0.850642 0.525712 0.000000 0.901950 0.362324 105 43 89
0.007671 2.276199 1.037538 -0.425306 0.850642 0.309000 0.901950 0.402978 133 67 116
-0.417654 1.951281 0.728527 -0.850642 0.525712 0.000000 0.993018 0.654283 149 57 126
-0.290614 1.872764 1.254252 -0.723594 0.447188 0.525712 0.993018 0.695376 156 60 132
0.007671 2.276199 1.037538 -0.425306 0.850642 0.309000 0.956743 0.674221 217 181 208
0.007671 2.276199 1.037538 -0.425306 0.850642 0.309000 0.903867 0.697549 162 66 138
0.595449 2.276199 1.228522 0.162450 0.850642 0.499985 0.854837 0.669458 94 48 141
0.432994 2.425545 0.728527 0.000000 1.000000 0.000000 0.903867 0.656895 198 106 175
0.007671 2.276199 1.037538 -0.425306 0.850642 0.309000 0.850773 0.172177 69 48 91
0.170125 1.951282 1.537538 -0.262856 0.525712 0.808985 0.899804 0.159614 104 63 94
0.595449 2.276199 1.228522 0.162450 0.850642 0.499985 0.899804 0.200268 111 66 100
0.170125 1.951282 1.537538 -0.262856 0.525712 0.808985 0.986323 0.253434 94 43 81
0.709382 1.872765 1.579176 0.276376 0.447218 0.850642 0.948103 0.223983 105 57 93
0.595449 2.276199 1.228522 0.162450 0.850642 0.499985 0.986323 0.212045 110 63 98
0.595449 2.276199 1.228522 0.162450 0.850642 0.499985 0.844889 0.054752 107 92 122
0.958723 2.276196 0.728527 0.525712 0.850642 0.000000 0.844889 0.102543 111 94 129
0.432994 2.425545 0.728527 0.000000 1.000000 0.000000 0.803182 0.078647 244 243 244
0.595449 2.276199 1.228522 0.162450 0.850642 0.499985 0.678698 0.652836 62 85 154
1.121183 1.951281 1.228523 0.688162 0.525712 0.499985 0.636990 0.628940 69 91 158
0.958723 2.276196 0.728527 0.525712 0.850642 0.000000 0.678698 0.605045 48 69 135
1.121183 1.951281 1.228523 0.688162 0.525712 0.499985 0.982210 0.745947 169 68 144
1.327420 1.872760 0.728527 0.894406 0.447188 0.000000 0.989745 0.784612 153 48 127
0.958723 2.276196 0.728527 0.525712 0.850642 0.000000 0.950479 0.784612 144 39 118
1.384051 1.425545 0.419514 0.951048 0.000000 -0.309000 0.905687 0.074917 88 55 79
1.121183 1.951281 0.228530 0.688162 0.525712 -0.499985 0.953589 0.054170 69 39 62
1.327420 1.872760 0.728527 0.894406 0.447188 0.000000 0.953589 0.093289 88 54 80
1.384051 1.425545 0.419514 0.951048 0.000000 -0.309000 0.790359 0.740985 97 47 148
1.020779 1.425545 -0.080490 0.587756 0.000000 -0.809015 0.744197 0.727950 72 96 171
1.121183 1.951281 0.228530 0.688162 0.525712 -0.499985 0.790359 0.697888 0 0 0
1.020779 1.425545 -0.080490 0.587756 0.000000 -0.809015 0.955020 0.557683 126 45 105
0.709382 1.872765 -0.122123 0.276376 0.447218 -0.850642 0.955020 0.599824 124 38 102
1.121183 1.951281 0.228530 0.688162 0.525712 -0.499985 0.917481 0.586610 128 43 106
0.432994 1.425545 -0.271473 0.000000 0.000000 -0.999969 0.847036 0.312231 109 81 138
0.170125 1.951282 -0.080485 -0.262856 0.525712 -0.808985 0.847036 0.357684 96 66 127
0.709382 1.872765 -0.122123 0.276376 0.447218 -0.850642 0.803182 0.333605 231 227 236
0.432994 1.425545 -0.271473 0.000000 0.000000 -0.999969 0.746060 0.554371 50 70 131
-0.154792 1.425545 -0.080490 -0.587756 0.000000 -0.809015 0.746060 0.599824 50 71 136
0.170125 1.951282 -0.080485 -0.262856 0.525712 -0.808985 0.694506 0.574698 89 89 89
-0.154792 1.425545 -0.080490 -0.587756 0.000000 -0.809015 0.942218 0.410116 127 60 110
-0.290614 1.872764 0.202801 -0.723594 0.447188 -0.525712 0.907833 0.386220 130 66 114
0.170125 1.951282 -0.080485 -0.262856 0.525712 -0.808985 0.942218 0.362324 100 38 84
-0.518064 1.425545 0.419514 -0.951048 0.000000 -0.309000 0.943045 0.604463 125 38 103
-0.417654 1.951281 0.728527 -0.850642 0.525712 0.000000 0.943045 0.651674 157 66 134
-0.290614 1.872764 0.202801 -0.723594 0.447188 -0.525712 0.902429 0.625930 192 103 169
-0.518064 1.425545 0.419514 -0.951048 0.000000 -0.309000 0.746774 0.549731 47 67 128
-0.518064 1.425545 1.037539 -0.951048 0.000000 0.309000 0.694506 0.525541 47 66 126
-0.417654 1.951281 0.728527 -0.850642 0.525712 0.000000 0.746774 0.502520 38 57 114
-0.518064 1.425545 1.037539 -0.951048 0.000000 0.309000 0.946303 0.049531 0 0 0
-0.290614 1.872764 1.254252 -0.723594 0.447188 0.525712 0.905687 0.028064 83 55 76
-0.417654 1.951281 0.728527 -0.850642 0.525712 0.000000 0.946303 0.002320 78 53 72
-0.154792 1.425545 1.537543 -0.587756 0.000000 0.809015 0.953301 0.450899 227 211 223
0.170125 1.951282 1.537538 -0.262856 0.525712 0.808985 0.907833 0.419300 150 89 134
-0.290614 1.872764 1.254252 -0.723594 0.447188 0.525712 0.953301 0.414756 159 109 147
-0.154792 1.425545 1.537543 -0.587756 0.000000 0.809015 0.803498 0.554371 111 70 152
0.432994 1.425545 1.728527 0.000000 0.000000 1.000000 0.803498 0.599824 115 72 158
0.170125 1.951282 1.537538 -0.262856 0.525712 0.808985 0.751944 0.579496 114 72 156
0.432994 1.425545 1.728527 0.000000 0.000000 1.000000 0.847036 0.407777 90 57 124
0.709382 1.872765 1.579176 0.276376 0.447218 0.850642 0.803182 0.386404 71 39 103
0.170125 1.951282 1.537538 -0.262856 0.525712 0.808985 0.847036 0.362324 103 72 134
1.020779 1.425545 1.537543 0.587786 0.000000 0.809015 0.969884 0.362324 137 75 121
1.121183 1.951281 1.228523 0.688162 0.525712 0.499985 0.989211 0.400805 123 57 106
0.709382 1.872765 1.579176 0.276376 0.447218 0.850642 0.948102 0.400805 138 72 121
1.020779 1.425545 1.537543 0.587786 0.000000 0.809015 0.852234 0.549731 112 72 153
1.384051 1.425545 1.037539 0.951048 0.000000 0.309000 0.810095 0.529963 102 63 142
1.121183 1.951281 1.228523 0.688162 0.525712 0.499985 0.852234 0.502520 101 63 139
1.384051 1.425545 1.037539 0.951048 0.000000 0.309000 0.899447 0.702189 163 66 138
1.327420 1.872760 0.728527 0.894406 0.447188 0.000000 0.899447 0.744194 164 63 139
1.121183 1.951281 1.228523 0.688162 0.525712 0.499985 0.854837 0.727086 101 52 151
1.020779 1.425545 -0.080490 0.587756 0.000000 -0.809015 0.847037 0.212045 67 44 91
0.432994 1.425545 -0.271473 0.000000 0.000000 -0.999969 0.847037 0.257498 84 59 110
0.709382 1.872765 -0.122123 0.276376 0.447218 -0.850642 0.803182 0.236125 71 47 96
1.020779 1.425545 -0.080490 0.587756 0.000000 -0.809015 0.752657 0.527647 107 68 147
0.695862 0.899807 -0.080485 0.262856 -0.525712 -0.808985 0.804211 0.502520 95 57 133
0.432994 1.425545 -0.271473 0.000000 0.000000 -0.999969 0.804211 0.547974 208 208 208
0.695862 0.899807 -0.080485 0.262856 -0.525712 -0.808985 0.847036 0.457871 74 38 110
0.156606 0.978325 -0.122123 -0.276376 -0.447188 -0.850642 0.803182 0.433791 229 224 234
0.432994 1.425545 -0.271473 0.000000 0.000000 -0.999969 0.847036 0.412417 80 47 114
-0.154792 1.425545 -0.080490 -0.587756 0.000000 -0.809015 0.678535 0.746078 69 94 170
-0.518064 1.425545 0.419514 -0.951048 0.000000 -0.309000 0.636990 0.725543 61 85 160
-0.290614 1.872764 0.202801 -0.723594 0.447188 -0.525712 0.678535 0.705213 0 0 0
-0.154792 1.425545 -0.080490 -0.587756 0.000000 -0.809015 0.689283 0.732251 57 82 157
-0.255196 0.899809 0.228530 -0.688162 -0.525712 -0.499985 0.735444 0.702189 57 81 154
-0.518064 1.425545 0.419514 -0.951048 0.000000 -0.309000 0.735444 0.745286 72 97 173
-0.255196 0.899809 0.228530 -0.688162 -0.525712 -0.499985 0.953232 0.702189 237 237 237
-0.461433 0.978329 0.728527 -0.894406 -0.447188 0.000000 0.953232 0.741308 160 59 134
-0.518064 1.425545 0.419514 -0.951048 0.000000 -0.309000 0.905330 0.722936 160 61 135
-0.518064 1.425545 1.037539 -0.951048 0.000000 0.309000 0.905687 0.178613 109 66 98
-0.154792 1.425545 1.537543 -0.587756 0.000000 0.809015 0.947233 0.158078 104 63 94
-0.290614 1.872764 1.254252 -0.723594 0.447188 0.525712 0.947233 0.198943 7 7 7
-0.518064 1.425545 1.037539 -0.951048 0.000000 0.309000 0.683151 0.657476 88 111 180
-0.255196 0.899809 1.228523 -0.688162 -0.525712 0.499985 0.683151 0.700574 230 233 242
-0.154792 1.425545 1.537543 -0.587756 0.000000 0.809015 0.636990 0.670511 62 85 155
-0.255196 0.899809 1.228523 -0.688162 -0.525712 0.499985 0.913031 0.515734 118 40 98
0.156606 0.978325 1.579176 -0.276376 -0.447218 0.850642 0.950570 0.502520 123 47 104
-0.154792 1.425545 1.537543 -0.587756 0.000000 0.809015 0.950570 0.544661 0 0 0
0.432994 1.425545 1.728527 0.000000 0.000000 1.000000 0.847037 0.262138 84 58 110
1.020779 1.425545 1.537543 0.587786 0.000000 0.809015 0.847037 0.307591 100 72 128
0.709382 1.872765 1.579176 0.276376 0.447218 0.850642 0.803182 0.283511 93 66 120
0.432994 1.425545 1.728527 0.000000 0.000000 1.000000 0.688543 0.554951 70 90 152
0.695862 0.899807 1.537538 0.262856 -0.525712 0.808985 0.688543 0.600405 66 87 152
1.020779 1.425545 1.537543 0.587786 0.000000 0.809015 0.636990 0.575278 51 72 135
0.695862 0.899807 1.537538 0.262856 -0.525712 0.808985 0.942220 0.259838 98 47 85
1.156601 0.978325 1.254252 0.723594 -0.447188 0.525712 0.907835 0.235942 124 75 112
1.020779 1.425545 1.537543 0.587786 0.000000 0.809015 0.942220 0.212045 113 66 101
1.384051 1.425545 1.037539 0.951048 0.000000 0.309000 0.794039 0.646468 89 44 135
1.384051 1.425545 0.419514 0.951048 0.000000 -0.309000 0.744197 0.619281 53 75 141
1.327420 1.872760 0.728527 0.894406 0.447188 0.000000 0.794039 0.604463 109 66 153
1.384051 1.425545 1.037539 0.951048 0.000000 0.309000 0.688622 0.550312 66 86 147
1.283641 0.899809 0.728527 0.850642 -0.525712 0.000000 0.636990 0.526416 49 68 128
1.384051 1.425545 0.419514 0.951048 0.000000 -0.309000 0.688622 0.502520 76 95 152
1.283641 0.899809 0.728527 0.850642 -0.525712 0.000000 0.886250 0.457711 138 66 120
1.156601 0.978325 0.202801 0.723594 -0.447188 -0.525712 0.901814 0.496928 133 57 114
1.384051 1.425545 0.419514 0.951048 0.000000 -0.309000 0.852920 0.496928 85 47 123
0.858316 0.574891 0.419515 0.425306 -0.850642 -0.309000 0.993858 0.054170 78 48 71
0.695862 0.899807 -0.080485 0.262856 -0.525712 -0.808985 0.993858 0.094825 114 79 105
1.156601 0.978325 0.202801 0.723594 -0.447188 -0.525712 0.959473 0.062981 57 57 57
0.858316 0.574891 0.419515 0.425306 -0.850642 -0.309000 0.899803 0.088268 87 53 78
0.270538 0.574890 0.228531 -0.162450 -0.850642 -0.499985 0.850773 0.060177 87 72 103
0.695862 0.899807 -0.080485 0.262856 -0.525712 -0.808985 0.899803 0.047614 74 44 66
0.270538 0.574890 0.228531 -0.162450 -0.850642 -0.499985 0.994225 0.196559 108 63 97
0.156606 0.978325 -0.122123 -0.276376 -0.447188 -0.850642 0.953117 0.196559 114 69 103
0.695862 0.899807 -0.080485 0.262856 -0.525712 -0.808985 0.974898 0.158078 107 66 97
0.270538 0.574890 0.228531 -0.162450 -0.850642 -0.499985 0.959116 0.740854 164 63 138
-0.255196 0.899809 0.228530 -0.688162 -0.525712 -0.499985 0.975047 0.702189 160 63 135
0.156606 0.978325 -0.122123 -0.276376 -0.447188 -0.850642 0.995271 0.740854 167 66 141
0.270538 0.574890 0.228531 -0.162450 -0.850642 -0.499985 0.847515 0.632554 85 41 130
-0.092736 0.574893 0.728527 -0.525712 -0.850642 0.000000 0.896545 0.604463 125 38 103
-0.255196 0.899809 0.228530 -0.688162 -0.525712 -0.499985 0.896545 0.645118 163 72 140
-0.092736 0.574893 0.728527 -0.525712 -0.850642 0.000000 0.744197 0.750328 98 123 200
-0.461433 0.978329 0.728527 -0.894406 -0.447188 0.000000 0.783007 0.745625 103 53 154
-0.255196 0.899809 0.228530 -0.688162 -0.525712 -0.499985 0.783007 0.784743 123 71 176
-0.092736 0.574893 0.728527 -0.525712 -0.850642 0.000000 0.989418 0.502520 114 38 95
-0.255196 0.899809 1.228523 -0.688162 -0.525712 0.499985 0.989418 0.548575 128 47 108
-0.461433 0.978329 0.728527 -0.894406 -0.447188 0.000000 0.956454 0.519343 129 51 109
-0.092736 0.574893 0.728527 -0.525712 -0.850642 0.000000 0.841631 0.604463 100 57 144
0.270538 0.574890 1.228522 -0.162450 -0.850642 0.499985 0.841631 0.652255 95 50 141
-0.255196 0.899809 1.228523 -0.688162 -0.525712 0.499985 0.799923 0.628359 88 44 133
0.270538 0.574890 1.228522 -0.162450 -0.850642 0.499985 0.991876 0.496376 145 69 126
0.156606 0.978325 1.579176 -0.276376 -0.447218 0.850642 0.957490 0.487566 132 57 113
-0.255196 0.899809 1.228523 -0.688162 -0.525712 0.499985 0.991876 0.455722 129 58 111
1.283641 0.899809 0.728527 0.850642 -0.525712 0.000000 0.897587 0.748834 164 63 139
0.858316 0.574891 0.419515 0.425306 -0.850642 -0.309000 0.897587 0.783702 143 38 117
1.156601 0.978325 0.202801 0.723594 -0.447188 -0.525712 0.854837 0.772332 109 57 161
1.283641 0.899809 0.728527 0.850642 -0.525712 0.000000 0.803182 0.131079 63 44 82
0.858316 0.574891 1.037538 0.425306 -0.850642 0.309000 0.844890 0.107183 107 89 125
0.858316 0.574891 0.419515 0.425306 -0.850642 -0.309000 0.844890 0.154974 80 60 101
0.858316 0.574891 1.037538 0.425306 -0.850642 0.309000 0.844890 0.207405 83 60 106
0.432994 0.425545 0.728527 0.000000 -1.000000 0.000000 0.803182 0.183510 253 253 253
0.858316 0.574891 0.419515 0.425306 -0.850642 -0.309000 0.844890 0.159614 94 74 115
0.270538 0.574890 1.228522 -0.162450 -0.850642 0.499985 0.952187 0.040800 244 243 244
0.695862 0.899807 1.537538 0.262856 -0.525712 0.808985 0.971514 0.002320 69 44 63
0.156606 0.978325 1.579176 -0.276376 -0.447218 0.850642 0.993295 0.040800 82 53 75
0.270538 0.574890 1.228522 -0.162450 -0.850642 0.499985 0.850773 0.030411 77 63 91
0.858316 0.574891 1.037538 0.425306 -0.850642 0.309000 0.899803 0.002320 78 53 72
0.695862 0.899807 1.537538 0.262856 -0.525712 0.808985 0.899803 0.042974 70 41 63
0.858316 0.574891 1.037538 0.425306 -0.850642 0.309000 0.993570 0.450899 128 57 110
1.156601 0.978325 1.254252 0.723594 -0.447188 0.525712 0.959185 0.442088 131 131 131
0.695862 0.899807 1.537538 0.262856 -0.525712 0.808985 0.993570 0.410245 135 68 118
3 0 1 2
3 0 2 3
3 4 5 6
3 4 6 7
3 8 9 10
3 11 12 13
3 14 15 16
3 17 18 19
3 20 21 22
3 20 22 23
3 24 25 26
3 27 28 29
3 30 31 32
3 33 34 35
3 36 37 38
3 39 40 41
3 42 43 44
3 45 46 47
3 48 49 50
3 51 52 53
3 54 55 56
3 57 58 59
3 60 61 62
3 63 64 65
3 66 67 68
3 69 70 71
3 72 73 74
3 75 76 77
3 78 79 80
3 81 82 83
3 84 85 86
3 87 88 89
3 90 91 92
3 93 94 95
3 96 97 98
3 99 100 101
3 102 103 104
3 105 106 107
3 108 109 110
3 111 112 113
3 114 115 116
3 117 118 119
3 120 121 122
3 123 124 125
3 126 127 128
3 129 130 131
3 132 133 134
3 135 136 137
3 138 139 140
3 141 142 143
3 144 145 146
3 147 148 149
3 150 151 152
3 153 154 155
3 156 157 158
3 159 160 161
3 162 163 164
3 165 166 167
3 168 169 170
3 171 172 173
3 174 175 176
3 177 178 179
3 180 181 182
3 183 184 185
3 186 187 188
3 189 190 191
3 192 193 194
3 195 196 197
3 198 199 200
3 201 202 203
3 204 205 206
3 207 208 209
3 210 211 212
3 213 214 215
3 216 217 218
3 219 220 221
3 222 223 224
3 225 226 227
3 228 229 230
3 231 232 233
3 234 235 236
3 237 238 239
3 240 241 242
3 243 244 245
3 246 247 248
3 249 250 251
3 252 253 254
3 255 256 257
3 258 259 260
3 261 262 263
3 264 265 266
3 267 268 269
